<svg width="32" height="32" viewBox="0 0 32 32" fill="none" xmlns="http://www.w3.org/2000/svg">
<path d="M23.0333 24.1667L22.4667 23.6C22.2667 23.4 22.028 23.3 21.7507 23.3C21.4733 23.3 21.2342 23.4 21.0333 23.6C20.8324 23.8 20.7324 24.0333 20.7333 24.3C20.7342 24.5667 20.8342 24.8 21.0333 25L22.3333 26.3C22.5333 26.5 22.7667 26.6 23.0333 26.6C23.3 26.6 23.5333 26.5 23.7333 26.3L26.9667 23.1333C27.1667 22.9333 27.2667 22.6942 27.2667 22.416C27.2667 22.1378 27.1667 21.8991 26.9667 21.7C26.7667 21.5009 26.5276 21.4009 26.2493 21.4C25.9711 21.3991 25.7324 21.4991 25.5333 21.7L23.0333 24.1667ZM22.6667 12C23.0444 12 23.3613 11.872 23.6173 11.616C23.8733 11.36 24.0009 11.0436 24 10.6667C23.9991 10.2898 23.8711 9.97333 23.616 9.71733C23.3609 9.46133 23.0444 9.33333 22.6667 9.33333H9.33333C8.95556 9.33333 8.63911 9.46133 8.384 9.71733C8.12889 9.97333 8.00089 10.2898 8 10.6667C7.99911 11.0436 8.12711 11.3604 8.384 11.6173C8.64089 11.8742 8.95733 12.0018 9.33333 12H22.6667ZM24 30.6667C22.1556 30.6667 20.5836 30.0164 19.284 28.716C17.9844 27.4156 17.3342 25.8436 17.3333 24C17.3324 22.1564 17.9827 20.5844 19.284 19.284C20.5853 17.9836 22.1573 17.3333 24 17.3333C25.8427 17.3333 27.4151 17.9836 28.7173 19.284C30.0196 20.5844 30.6693 22.1564 30.6667 24C30.664 25.8436 30.0138 27.416 28.716 28.7173C27.4182 30.0187 25.8462 30.6684 24 30.6667ZM4 29.1667V6.66667C4 5.93333 4.26133 5.30578 4.784 4.784C5.30667 4.26222 5.93422 4.00089 6.66667 4H25.3333C26.0667 4 26.6947 4.26133 27.2173 4.784C27.74 5.30667 28.0009 5.93422 28 6.66667V14C28 14.3778 27.8444 14.6836 27.5333 14.9173C27.2222 15.1511 26.8778 15.212 26.5 15.1C25.8778 14.9444 25.2444 14.8333 24.6 14.7667C23.9556 14.7 23.3111 14.6667 22.6667 14.6667H9.33333C8.95556 14.6667 8.63911 14.7947 8.384 15.0507C8.12889 15.3067 8.00089 15.6231 8 16C7.99911 16.3769 8.12711 16.6938 8.384 16.9507C8.64089 17.2076 8.95733 17.3351 9.33333 17.3333H17.4667C17.0889 17.7111 16.7391 18.1222 16.4173 18.5667C16.0956 19.0111 15.812 19.4889 15.5667 20H9.33333C8.95556 20 8.63911 20.128 8.384 20.384C8.12889 20.64 8.00089 20.9564 8 21.3333C7.99911 21.7102 8.12711 22.0271 8.384 22.284C8.64089 22.5409 8.95733 22.6684 9.33333 22.6667H14.7667C14.7222 22.8889 14.6947 23.1058 14.684 23.3173C14.6733 23.5289 14.6676 23.7564 14.6667 24C14.6667 24.5778 14.7222 25.1444 14.8333 25.7C14.9444 26.2556 15.0889 26.8111 15.2667 27.3667C15.3778 27.6111 15.3333 27.8058 15.1333 27.9507C14.9333 28.0956 14.7444 28.0787 14.5667 27.9L14.4667 27.8C14.3333 27.6667 14.1778 27.6 14 27.6C13.8222 27.6 13.6667 27.6667 13.5333 27.8L12.4667 28.8667C12.3333 29 12.1778 29.0667 12 29.0667C11.8222 29.0667 11.6667 29 11.5333 28.8667L10.4667 27.8C10.3333 27.6667 10.1778 27.6 10 27.6C9.82222 27.6 9.66667 27.6667 9.53333 27.8L8.46667 28.8667C8.33333 29 8.17778 29.0667 8 29.0667C7.82222 29.0667 7.66667 29 7.53333 28.8667L6.46667 27.8C6.33333 27.6667 6.17778 27.6 6 27.6C5.82222 27.6 5.66667 27.6667 5.53333 27.8L4.46667 28.8667L4 29.1667Z" fill="#0067FE"/>
</svg>
