<svg width="32" height="32" viewBox="0 0 32 32" fill="none" xmlns="http://www.w3.org/2000/svg">
<path d="M16.0013 29.3334C14.1569 29.3334 12.4235 28.9832 10.8013 28.2827C9.17908 27.5823 7.76797 26.6325 6.56797 25.4334C5.36797 24.2343 4.41819 22.8232 3.71864 21.2001C3.01908 19.577 2.66886 17.8436 2.66797 16.0001C2.66708 14.1565 3.0173 12.4232 3.71864 10.8001C4.41997 9.17697 5.36975 7.76586 6.56797 6.56675C7.76619 5.36764 9.1773 4.41786 10.8013 3.71741C12.4253 3.01697 14.1586 2.66675 16.0013 2.66675C17.844 2.66675 19.5773 3.01697 21.2013 3.71741C22.8253 4.41786 24.2364 5.36764 25.4346 6.56675C26.6329 7.76586 27.5831 9.17697 28.2853 10.8001C28.9875 12.4232 29.3373 14.1565 29.3346 16.0001C29.332 17.8436 28.9817 19.577 28.284 21.2001C27.5862 22.8232 26.6364 24.2343 25.4346 25.4334C24.2329 26.6325 22.8217 27.5827 21.2013 28.2841C19.5809 28.9854 17.8475 29.3352 16.0013 29.3334ZM16.0013 26.6667C18.9791 26.6667 21.5013 25.6334 23.568 23.5667C25.6346 21.5001 26.668 18.9779 26.668 16.0001C26.668 15.8445 26.6626 15.6832 26.652 15.5161C26.6413 15.349 26.6355 15.2103 26.6346 15.1001C26.5235 15.7445 26.2235 16.2779 25.7346 16.7001C25.2457 17.1223 24.668 17.3334 24.0013 17.3334H21.3346C20.6013 17.3334 19.9737 17.0725 19.452 16.5507C18.9302 16.029 18.6689 15.401 18.668 14.6667V13.3334H13.3346V10.6667C13.3346 9.93341 13.596 9.30586 14.1186 8.78408C14.6413 8.2623 15.2689 8.00097 16.0013 8.00008H17.3346C17.3346 7.48897 17.4737 7.03919 17.752 6.65075C18.0302 6.2623 18.3689 5.94541 18.768 5.70008C18.3235 5.58897 17.8737 5.50008 17.4186 5.43341C16.9635 5.36675 16.4911 5.33341 16.0013 5.33341C13.0235 5.33341 10.5013 6.36675 8.43464 8.43341C6.36797 10.5001 5.33464 13.0223 5.33464 16.0001H12.0013C13.468 16.0001 14.7235 16.5223 15.768 17.5667C16.8124 18.6112 17.3346 19.8667 17.3346 21.3334V22.6667H13.3346V26.3334C13.7791 26.4445 14.2182 26.5281 14.652 26.5841C15.0857 26.6401 15.5355 26.6676 16.0013 26.6667Z" fill="#0067FE"/>
</svg>
