<svg width="32" height="32" viewBox="0 0 32 32" fill="none" xmlns="http://www.w3.org/2000/svg">
<path d="M26.6667 22.6667C28.1333 22.6667 29.3333 21.4667 29.3333 20.0001V5.33341C29.3333 3.86675 28.1333 2.66675 26.6667 2.66675H12.6667C13.0667 3.46675 13.3333 4.40008 13.3333 5.33341H26.6667V20.0001H14.6667V22.6667M20 9.33341V12.0001H12V29.3334H9.33333V21.3334H6.66667V29.3334H4V18.6667H2V12.0001C2 10.5334 3.2 9.33341 4.66667 9.33341H20ZM10.6667 5.33341C10.6667 6.80008 9.46667 8.00008 8 8.00008C6.53333 8.00008 5.33333 6.80008 5.33333 5.33341C5.33333 3.86675 6.53333 2.66675 8 2.66675C9.46667 2.66675 10.6667 3.86675 10.6667 5.33341ZM22.6667 8.00008H25.3333V18.6667H22.6667V8.00008ZM18.6667 13.3334H21.3333V18.6667H18.6667V13.3334ZM14.6667 13.3334H17.3333V18.6667H14.6667V13.3334Z" fill="white"/>
</svg>
