<svg width="32" height="32" viewBox="0 0 32 32" fill="none" xmlns="http://www.w3.org/2000/svg">
<g clip-path="url(#clip0_2318_59)">
<path d="M23.9987 2.66675C24.7059 2.66675 25.3842 2.9477 25.8843 3.4478C26.3844 3.94789 26.6654 4.62617 26.6654 5.33341V26.6667C26.6654 27.374 26.3844 28.0523 25.8843 28.5524C25.3842 29.0525 24.7059 29.3334 23.9987 29.3334H7.9987C7.29145 29.3334 6.61318 29.0525 6.11308 28.5524C5.61298 28.0523 5.33203 27.374 5.33203 26.6667V5.33341C5.33203 4.62617 5.61298 3.94789 6.11308 3.4478C6.61318 2.9477 7.29145 2.66675 7.9987 2.66675H23.9987ZM15.9987 17.3334H11.9987C11.6451 17.3334 11.3059 17.4739 11.0559 17.7239C10.8058 17.974 10.6654 18.3131 10.6654 18.6667C10.6654 19.0204 10.8058 19.3595 11.0559 19.6096C11.3059 19.8596 11.6451 20.0001 11.9987 20.0001H15.9987C16.3523 20.0001 16.6915 19.8596 16.9415 19.6096C17.1916 19.3595 17.332 19.0204 17.332 18.6667C17.332 18.3131 17.1916 17.974 16.9415 17.7239C16.6915 17.4739 16.3523 17.3334 15.9987 17.3334ZM19.9987 10.6667H11.9987C11.6589 10.6671 11.332 10.7973 11.0849 11.0305C10.8378 11.2638 10.6891 11.5827 10.6691 11.9219C10.6492 12.2612 10.7596 12.5953 10.9777 12.8559C11.1958 13.1165 11.5052 13.2839 11.8427 13.3241L11.9987 13.3334H19.9987C20.3385 13.333 20.6654 13.2029 20.9125 12.9696C21.1596 12.7363 21.3083 12.4175 21.3283 12.0782C21.3482 11.739 21.2378 11.4049 21.0197 11.1443C20.8016 10.8837 20.4922 10.7162 20.1547 10.6761L19.9987 10.6667Z" fill="#0067FE"/>
</g>
<defs>
<clipPath id="clip0_2318_59">
<rect width="32" height="32" fill="white"/>
</clipPath>
</defs>
</svg>
